<?xml version="1.0" encoding="utf-8"?>
<!DOCTYPE svg PUBLIC "-//W3C//DTD SVG 1.0//EN" "http://www.w3.org/TR/2001/REC-SVG-20010904/DTD/svg10.dtd">
<svg version="1.0" xmlns="http://www.w3.org/2000/svg" width="638px" height="209px" viewBox="0 0 638 209" preserveAspectRatio="xMidYMid meet">
 <g fill="#480e01">
  <path d="M442.5 206.8 c-3.6 -2 -6.6 -5.2 -8.1 -8.7 -2.1 -5 -2.1 -182.9 0 -186.9 1.6 -3.1 6.1 -7.4 9.3 -9.1 1.6 -0.8 27.4 -1.1 91.6 -1.1 l89.4 0 4 2.9 c2.2 1.6 5 4.5 6.2 6.4 l2.1 3.4 0 91.2 0 91.2 -3.1 4.6 c-1.8 2.5 -4.6 5.1 -6.5 5.9 -2.8 1.2 -18.4 1.4 -93.1 1.4 -63.7 -0.1 -90.4 -0.4 -91.8 -1.2z m146.2 -36.3 c6.9 -2.1 9.9 -3.7 14.3 -7.9 5.9 -5.6 9.7 -12.2 11.4 -19.5 1.5 -6.3 1.4 -7.3 -0.3 -13.5 -3.8 -13.6 -14.9 -24.4 -27.7 -26.9 -3.8 -0.7 -12.1 1.4 -17.1 4.4 -9 5.3 -16.4 16.5 -17.8 26.7 -1.5 11 6.7 26.7 17 32.7 3.6 2.2 10.8 4.8 14.6 5.4 0.3 0.1 2.8 -0.6 5.6 -1.4z m-84.3 -3.6 c20 -8.9 32.5 -31.1 28.7 -51.3 -2.8 -15.2 -13.7 -29.2 -27.8 -35.9 l-6.8 -3.2 -22.2 -0.3 -22.3 -0.3 0 47.1 0 47.1 22.3 -0.3 c21.4 -0.3 22.4 -0.4 28.1 -2.9z"/>
  <path d="M572 152.4 c-4.5 -3.9 -6 -7.4 -6 -14.8 0 -13.6 4.6 -18.6 17.1 -18.6 12.7 0 16.9 4.5 16.9 18 0 13.6 -4.2 18 -17.2 18 -6.8 0 -8 -0.3 -10.8 -2.6z"/>
  <path d="M469.5 152.7 c-0.3 -0.7 -0.4 -14.5 -0.3 -30.7 l0.3 -29.5 15 0 c13.8 0 15.4 0.2 19.4 2.3 5.1 2.8 9.4 7.1 12.4 12.7 1.9 3.4 2.2 5.6 2.2 15 0 10.1 -0.2 11.5 -2.8 16.6 -3.4 6.7 -10.2 12.3 -16.7 13.8 -6.7 1.6 -28.9 1.4 -29.5 -0.2z"/>
  <path d="M22.5 71.2 c-0.6 -0.5 -4.8 -2.3 -9.5 -4.1 -10.1 -3.9 -11.3 -4.4 -11.1 -5.4 0 -0.4 0.1 -1.8 0.1 -3.2 0 -1.7 0.5 -2.5 1.8 -2.5 1.6 0 26.1 8.6 27 9.5 0.2 0.2 0.1 1.7 -0.3 3.4 -0.6 2.7 -1.1 3.1 -3.9 3.1 -1.8 0 -3.6 -0.4 -4.1 -0.8z"/>
  <path d="M30.7 54.8 c-8.9 -12.7 -11.7 -16.8 -11.7 -17.4 0 -0.7 4.2 -4.3 5 -4.4 0.3 0 2.8 3.2 5.5 7.1 2.8 3.9 6.5 9 8.3 11.4 1.7 2.4 3.2 4.8 3.2 5.2 0 1.1 -3.7 4.3 -4.9 4.3 -0.5 0 -2.9 -2.8 -5.4 -6.2z"/>
  <path d="M47.5 49.3 c-0.4 -1.6 -1.7 -6.8 -3.1 -11.8 -3.4 -12.9 -3.4 -13.7 -0.1 -14.9 3.6 -1.3 3.8 -1.1 7.2 12.3 1.6 5.8 3.2 11.4 3.6 12.3 1.5 2.8 0 4.8 -3.7 4.8 -2.9 0 -3.4 -0.4 -3.9 -2.7z"/>
 </g>
 <g fill="#ff9200">
  <path d="M55.7 174.9 c-8.3 -1.9 -17.2 -8.4 -21.3 -15.5 -1.5 -2.5 -2.5 -4.6 -2.3 -4.8 0.2 -0.2 1.8 -1.1 3.6 -2 5.3 -2.6 8.4 -2 14.7 2.9 6.4 4.9 9.9 5.9 18.6 5.3 10.8 -0.8 19 -8.7 19 -18.3 0 -8.4 -4.3 -12.4 -19.7 -18.4 -14.3 -5.4 -18.9 -7.8 -23.3 -11.7 -5.7 -5.2 -9 -12.3 -9 -19.6 0 -14.2 8.8 -24.5 24.4 -28.4 6 -1.5 7.8 -1.6 13 -0.5 7.2 1.5 14.1 5.1 20.2 10.4 5.1 4.5 4.8 5.7 -2.2 8.9 -4.6 2 -7.2 1.5 -14.8 -2.8 -13.1 -7.5 -30.5 4.4 -24.3 16.6 1.8 3.6 6.2 6.2 19.9 11.5 14.6 5.7 20.7 9.3 24.8 14.5 4.2 5.3 6 11.1 6 19.5 0 6 -0.5 8.2 -3.1 13.3 -7.5 15.2 -26.4 23.3 -44.2 19.1z"/>
  <path d="M135.5 174.2 c-5.1 -2.5 -9.3 -6.9 -10.5 -11.3 -0.6 -1.8 -1 -14.7 -1 -28.6 l0 -25.2 -6.7 -0.3 -6.8 -0.3 -0.3 -5.1 c-0.4 -6.2 1.5 -8.2 8.5 -9.2 l4.8 -0.7 0.5 -11.5 c0.7 -15 1.3 -16.2 8.8 -15.8 l5.7 0.3 0.3 13.8 0.3 13.7 11 0 11 0 -0.3 7.2 -0.3 7.2 -5.2 -0.3 c-2.9 -0.1 -7.8 0.1 -10.8 0.4 l-5.5 0.7 0 24.2 c0 19.1 0.3 24.6 1.4 26.1 1.2 1.6 2.5 1.9 8.6 1.7 7.1 -0.3 7.2 -0.2 10.6 3.3 1.9 2 3.2 4.1 2.8 4.6 -0.3 0.5 -2.9 2.1 -5.7 3.6 -6.9 3.5 -15.7 4.1 -21.2 1.5z"/>
  <path d="M197.4 174.2 c-14.1 -4.9 -24.7 -17 -27.5 -31.4 -4.7 -23.8 10.7 -46.1 34.5 -50 17.6 -2.9 36 7 44.1 23.7 2.5 5 3 7.4 3.3 15.6 0.7 17.4 -5.4 29.3 -19.7 38.3 -8.8 5.6 -24.5 7.3 -34.7 3.8z m25.2 -16 c13.3 -6.8 18.2 -24.7 10.3 -37.7 -3.9 -6.4 -8.6 -10 -15.7 -12.1 -18.8 -5.4 -37.4 13.7 -31.8 32.8 2.4 8.4 10.7 17.1 18.1 19.1 4.3 1.2 15 0 19.1 -2.1z"/>
  <path d="M292.9 174.7 c-10.7 -3 -22.7 -14.3 -26.8 -25.1 -3 -8.2 -3 -23.6 0.1 -30.9 7.1 -16.6 21.2 -26.1 38.8 -26.1 11.3 -0.1 19.3 2.8 27.4 9.7 3.6 3.1 2.9 5.6 -2.3 8.5 -4.7 2.7 -7.1 2.7 -11.9 0.3 -7.2 -3.6 -13.3 -4.4 -19.4 -2.6 -19.7 5.7 -26.3 28.5 -12.7 44 7.4 8.4 18.8 10.7 30.1 5.9 4.5 -1.9 7.3 -2.5 10.1 -2.1 3.9 0.5 8.7 4 8.7 6.3 0 2 -7 7.5 -12.9 10.2 -6.6 3 -21.7 4 -29.2 1.9z"/>
  <path d="M348 120 l0 -55 7.5 0 7.5 0 -0.2 54.8 -0.3 54.7 -7.2 0.3 -7.3 0.3 0 -55.1z"/>
  <path d="M402.4 173.1 c-3.2 -1.5 -6.3 -4.9 -15.8 -17.7 -6.5 -8.8 -13.3 -17.4 -15 -19.2 -2.7 -3 -2.9 -3.5 -1.5 -4.5 0.9 -0.7 7 -8.5 13.7 -17.4 6.7 -8.9 13.3 -17 14.7 -17.9 3.1 -2 17.5 -3.3 17.5 -1.6 0 1.4 -2.4 4.8 -16.3 23.6 -7.5 10.2 -10.6 15 -10 15.9 0.6 0.7 5.6 7.5 11.3 15.2 5.6 7.7 12 16.2 14.1 19 2 2.7 3.5 5.3 3.3 5.7 -1 1.5 -11.9 0.8 -16 -1.1z"/>
  <path d="M564.8 169.2 c-3.7 -2.2 -3.5 -3.2 0.7 -3.2 3.1 0 3.5 0.3 3.5 2.5 0 2.9 -0.6 3 -4.2 0.7z"/>
  <path d="M523 154.5 c0 -3.2 0.2 -3.5 3 -3.5 l2.9 0 -2 3.5 c-1.2 1.9 -2.5 3.5 -3 3.5 -0.5 0 -0.9 -1.6 -0.9 -3.5z"/>
  <path d="M490 152.6 c0 -0.7 1 -1.6 2.3 -2 4.1 -1.1 5.7 -0.7 5.7 1.4 0 1.7 -0.7 2 -4 2 -2.7 0 -4 -0.4 -4 -1.4z"/>
  <path d="M499.8 97.4 c-3.8 -2 -3.5 -3.4 0.7 -3.4 3.1 0 3.5 0.3 3.5 2.5 0 2.9 -0.5 3 -4.2 0.9z"/>
 </g>
 <g fill="#fffffe">
  <path d="M574.9 173.6 c-7.1 -2 -13.8 -6.4 -18.4 -12.4 -17.4 -22.1 -6.4 -55 20.3 -61.2 17.4 -4 35.8 8.4 40.6 27.4 2 8.1 2 10 0 18.6 -1.7 7.4 -5.5 14 -11.4 19.6 -4.4 4.2 -7.4 5.8 -14.3 7.9 -6 1.8 -10.5 1.8 -16.8 0.1z m15.9 -23.6 c8.3 -5.1 8.3 -20.9 0 -26 -7.3 -4.4 -17.2 -1.5 -20.2 6 -3.1 7.8 -1.6 14.3 4.4 19.4 4 3.3 10.9 3.6 15.8 0.6z"/>
  <path d="M451 123 l0 -50.1 25.3 0.3 25.2 0.3 6.8 3.2 c14.1 6.7 25 20.7 27.8 35.9 2.4 13 -0.4 29 -6.6 37.6 -1.4 1.8 -2.9 4.2 -3.4 5.4 -1.4 3.2 -12.1 11.4 -18.7 14.3 -5.8 2.5 -6.4 2.6 -31.1 2.9 l-25.3 0.3 0 -50.1z m46.1 26.9 c6.1 -2.1 12.5 -7.8 15.6 -13.8 2.4 -4.8 2.8 -6.8 2.8 -13.6 -0.1 -9 -1.8 -13.4 -7.8 -19.6 -6.1 -6.2 -9.6 -7.4 -23.2 -7.4 l-12 0 -0.3 26.5 c-0.1 14.6 0 27 0.3 27.7 0.6 1.7 19.8 1.8 24.6 0.2z"/>
 </g>
</svg>